<svg xmlns="http://www.w3.org/2000/svg" viewBox="0 0 64 64" role="img" aria-label="Collins Travel">
  <defs>
    <linearGradient id="bg" x1="0%" y1="0%" x2="100%" y2="100%">
      <stop offset="0%" stop-color="#0e5a67"/>
      <stop offset="100%" stop-color="#083946"/>
    </linearGradient>
  </defs>
  <rect x="4" y="4" width="56" height="56" rx="18" fill="#e8f0f0"/>
  <rect x="10" y="10" width="44" height="44" rx="14" fill="url(#bg)"/>
  <path d="M34.7 20.2c-5.7 0-10.5 4.1-10.5 11.9 0 7.5 4.4 11.7 10.8 11.7 3.1 0 5.8-.8 8.4-2.5l-2.2-4.2c-1.6 1-3.5 1.7-5.6 1.7-3.8 0-6-2.4-6-6.7 0-4.7 2.5-7 6-7 2.2 0 4 .7 5.8 1.9l2.3-4.2c-2.4-1.8-5.4-2.6-9-2.6z" fill="#ffffff"/>
  <path d="M39.2 38.7h7.7v3.4h-12v-2.7l7.1-8h-6.6V28h11.4v2.5l-7.6 8.2z" fill="#d9a441"/>
</svg>
